<svg version="1.1" id="Layer_1" xmlns="http://www.w3.org/2000/svg" xmlns:xlink="http://www.w3.org/1999/xlink" viewBox="0 0 512 512" xml:space="preserve" fill="#000000"><g id="SVGRepo_bgCarrier" stroke-width="0"></g><g id="SVGRepo_tracerCarrier" stroke-linecap="round" stroke-linejoin="round"></g><g id="SVGRepo_iconCarrier"> <rect x="8.294" y="198.497" style="fill:#BDBDC0;" width="495.413" height="247.706"></rect> <polygon style="fill:#A7A7AB;" points="25.987,428.51 25.987,198.497 8.294,198.497 8.294,446.203 503.706,446.203 503.706,428.51 "></polygon> <polygon style="fill:#FD5E95;" points="477.166,419.663 34.834,419.663 34.834,225.037 211.767,225.037 211.767,304.657 477.166,304.657 "></polygon> <polygon style="fill:#909296;" points="477.166,304.657 211.767,304.657 211.767,225.037 34.834,225.037 34.834,419.663 477.166,419.663 "></polygon> <rect x="34.834" y="225.037" style="fill:#7A7C82;" width="17.693" height="194.626"></rect> <g> <circle style="fill:#FD5E95;" cx="353.313" cy="366.583" r="17.693"></circle> <circle style="fill:#FD5E95;" cx="424.086" cy="366.583" r="17.693"></circle> </g> <polygon style="fill:#4E5058;" points="176.38,304.657 140.994,304.657 140.994,269.27 105.607,269.27 105.607,304.657 70.22,304.657 70.22,340.043 105.607,340.043 105.607,375.43 140.994,375.43 140.994,340.043 176.38,340.043 "></polygon> <rect x="238.307" y="225.037" style="fill:#E9E9EA;" width="132.7" height="53.08"></rect> <path d="M503.706,190.203h-70.773c-4.581,0-8.294,3.713-8.294,8.294s3.712,8.294,8.294,8.294h62.479v231.119H149.84 c-4.581,0-8.294,3.713-8.294,8.294s3.712,8.294,8.294,8.294h353.866c4.581,0,8.294-3.713,8.294-8.294V198.497 C512,193.916,508.288,190.203,503.706,190.203z"></path> <path d="M114.454,437.909H16.587V206.79h380.959c4.581,0,8.294-3.713,8.294-8.294s-3.712-8.294-8.294-8.294H131.594v-35.94 c0-14.939,12.153-27.093,27.093-27.093h168.086c24.085,0,43.68-19.595,43.68-43.68V65.797c0-4.58-3.712-8.294-8.294-8.294 c-4.581,0-8.294,3.713-8.294,8.294V83.49c0,14.939-12.153,27.093-27.093,27.093H158.687c-24.085,0-43.68,19.595-43.68,43.68v35.94 H8.294c-4.581,0-8.294,3.713-8.294,8.294v247.706c0,4.58,3.712,8.294,8.294,8.294h106.16c4.581,0,8.294-3.713,8.294-8.294 S119.035,437.909,114.454,437.909z"></path> <path d="M211.767,216.743H34.834c-4.581,0-8.294,3.713-8.294,8.294v194.626c0,4.58,3.712,8.294,8.294,8.294h442.333 c4.581,0,8.294-3.713,8.294-8.294V304.657c0-4.58-3.712-8.294-8.294-8.294H220.06v-71.326 C220.06,220.456,216.348,216.743,211.767,216.743z M468.873,312.95v98.419H43.127V233.33h160.346v71.326 c0,4.58,3.712,8.294,8.294,8.294H468.873z"></path> <path d="M353.313,392.57c14.329,0,25.987-11.658,25.987-25.987c0-14.329-11.658-25.987-25.987-25.987s-25.987,11.658-25.987,25.987 C327.326,380.913,338.984,392.57,353.313,392.57z M353.313,357.184c5.183,0,9.4,4.217,9.4,9.4s-4.217,9.4-9.4,9.4 s-9.4-4.217-9.4-9.4S348.13,357.184,353.313,357.184z"></path> <path d="M424.086,392.57c14.329,0,25.987-11.658,25.987-25.987c0-14.329-11.658-25.987-25.987-25.987 c-14.329,0-25.987,11.658-25.987,25.987C398.099,380.913,409.757,392.57,424.086,392.57z M424.086,357.184 c5.183,0,9.4,4.217,9.4,9.4s-4.217,9.4-9.4,9.4s-9.4-4.217-9.4-9.4S418.903,357.184,424.086,357.184z"></path> <path d="M176.38,296.363h-27.093V269.27c0-4.58-3.712-8.294-8.294-8.294h-35.387c-4.581,0-8.294,3.713-8.294,8.294v27.093H70.22 c-4.581,0-8.294,3.713-8.294,8.294v35.387c0,4.58,3.712,8.294,8.294,8.294h27.093v27.093c0,4.58,3.712,8.294,8.294,8.294h35.387 c4.581,0,8.294-3.713,8.294-8.294v-27.093h27.093c4.581,0,8.294-3.713,8.294-8.294v-35.387 C184.674,300.076,180.962,296.363,176.38,296.363z M168.086,331.749h-27.093c-4.581,0-8.294,3.713-8.294,8.294v27.093h-18.799 v-27.093c0-4.58-3.712-8.294-8.294-8.294H78.514V312.95h27.093c4.581,0,8.294-3.713,8.294-8.294v-27.093H132.7v27.093 c0,4.58,3.712,8.294,8.294,8.294h27.093V331.749z"></path> <path d="M229.46,374.877h17.693c4.581,0,8.294-3.713,8.294-8.294s-3.712-8.294-8.294-8.294H229.46c-4.581,0-8.294,3.713-8.294,8.294 S224.879,374.877,229.46,374.877z"></path> <path d="M273.693,374.877h17.693c4.581,0,8.294-3.713,8.294-8.294s-3.712-8.294-8.294-8.294h-17.693 c-4.581,0-8.294,3.713-8.294,8.294S269.112,374.877,273.693,374.877z"></path> <path d="M371.006,286.41c4.581,0,8.294-3.713,8.294-8.294v-53.08c0-4.58-3.712-8.294-8.294-8.294h-132.7 c-4.581,0-8.294,3.713-8.294,8.294v53.08c0,4.58,3.712,8.294,8.294,8.294H371.006z M246.6,233.33h116.112v36.492H246.6V233.33z"></path> <path d="M432.933,234.436h-35.387c-4.581,0-8.294,3.713-8.294,8.294s3.712,8.294,8.294,8.294h35.387 c4.581,0,8.294-3.713,8.294-8.294S437.514,234.436,432.933,234.436z"></path> <path d="M459.473,251.024c4.581,0,8.294-3.713,8.294-8.294s-3.712-8.294-8.294-8.294h-8.847c-4.581,0-8.294,3.713-8.294,8.294 s3.712,8.294,8.294,8.294H459.473z"></path> <path d="M424.086,277.564c4.581,0,8.294-3.713,8.294-8.294s-3.712-8.294-8.294-8.294h-26.54c-4.581,0-8.294,3.713-8.294,8.294 s3.712,8.294,8.294,8.294H424.086z"></path> <path d="M433.486,269.27c0,4.58,3.712,8.294,8.294,8.294h17.693c4.581,0,8.294-3.713,8.294-8.294s-3.712-8.294-8.294-8.294H441.78 C437.198,260.976,433.486,264.69,433.486,269.27z"></path> </g></svg>